<mxfile host="app.diagrams.net" modified="2024-05-05T22:07:03.314Z" agent="Mozilla/5.0 (Windows NT 10.0; Win64; x64) AppleWebKit/537.36 (KHTML, like Gecko) Chrome/124.0.0.0 Safari/537.36" etag="3FeLvqZOqHXnxktkHiYI" version="24.3.1" type="google">
  <diagram id="C5RBs43oDa-KdzZeNtuy" name="Page-1">
    <mxGraphModel grid="1" page="1" gridSize="10" guides="1" tooltips="1" connect="1" arrows="1" fold="1" pageScale="1" pageWidth="827" pageHeight="1169" math="0" shadow="0">
      <root>
        <mxCell id="WIyWlLk6GJQsqaUBKTNV-0" />
        <mxCell id="WIyWlLk6GJQsqaUBKTNV-1" parent="WIyWlLk6GJQsqaUBKTNV-0" />
        <mxCell id="1PLB17I36tUeewQhvuuq-11" style="edgeStyle=orthogonalEdgeStyle;rounded=0;orthogonalLoop=1;jettySize=auto;html=1;entryX=1;entryY=0;entryDx=0;entryDy=0;dashed=1;" edge="1" parent="WIyWlLk6GJQsqaUBKTNV-1" source="7Z3Eb2daHMO5Wzh2JKDy-3" target="7Z3Eb2daHMO5Wzh2JKDy-18">
          <mxGeometry relative="1" as="geometry" />
        </mxCell>
        <mxCell id="1PLB17I36tUeewQhvuuq-16" style="edgeStyle=orthogonalEdgeStyle;rounded=0;orthogonalLoop=1;jettySize=auto;html=1;exitX=1;exitY=0.5;exitDx=0;exitDy=0;strokeColor=default;strokeWidth=1;align=center;verticalAlign=middle;fontFamily=Helvetica;fontSize=11;fontColor=default;labelBackgroundColor=default;startArrow=none;startFill=0;startSize=20;endArrow=classic;" edge="1" parent="WIyWlLk6GJQsqaUBKTNV-1" source="7Z3Eb2daHMO5Wzh2JKDy-3" target="7Z3Eb2daHMO5Wzh2JKDy-6">
          <mxGeometry relative="1" as="geometry" />
        </mxCell>
        <mxCell id="7Z3Eb2daHMO5Wzh2JKDy-3" value="mainGUI" style="swimlane;fontStyle=0;align=center;verticalAlign=top;childLayout=stackLayout;horizontal=1;startSize=26;horizontalStack=0;resizeParent=1;resizeLast=0;collapsible=1;marginBottom=0;rounded=0;shadow=0;strokeWidth=1;" vertex="1" parent="WIyWlLk6GJQsqaUBKTNV-1">
          <mxGeometry x="620" y="-330" width="190" height="260" as="geometry">
            <mxRectangle x="230" y="140" width="160" height="26" as="alternateBounds" />
          </mxGeometry>
        </mxCell>
        <mxCell id="7Z3Eb2daHMO5Wzh2JKDy-4" value="" style="line;html=1;strokeWidth=1;align=left;verticalAlign=middle;spacingTop=-1;spacingLeft=3;spacingRight=3;rotatable=0;labelPosition=right;points=[];portConstraint=eastwest;" vertex="1" parent="7Z3Eb2daHMO5Wzh2JKDy-3">
          <mxGeometry y="26" width="190" height="8" as="geometry" />
        </mxCell>
        <mxCell id="7Z3Eb2daHMO5Wzh2JKDy-5" value="&amp;nbsp;+ openNetIncomeTrackerGUI()&amp;nbsp;&lt;div&gt;&amp;nbsp;+ openAccountsGUI()&lt;div&gt;&amp;nbsp;+ openBudgetPlannerGUI()&lt;br&gt;&lt;div&gt;&amp;nbsp;+ saveAndExit()&lt;br&gt;&lt;/div&gt;&lt;/div&gt;&lt;/div&gt;" style="text;html=1;align=left;verticalAlign=middle;resizable=0;points=[];autosize=1;strokeColor=none;fillColor=none;" vertex="1" parent="7Z3Eb2daHMO5Wzh2JKDy-3">
          <mxGeometry y="34" width="190" height="70" as="geometry" />
        </mxCell>
        <mxCell id="7Z3Eb2daHMO5Wzh2JKDy-6" value="BudgetPlannerGUI" style="swimlane;fontStyle=0;align=center;verticalAlign=top;childLayout=stackLayout;horizontal=1;startSize=26;horizontalStack=0;resizeParent=1;resizeLast=0;collapsible=1;marginBottom=0;rounded=0;shadow=0;strokeWidth=1;" vertex="1" parent="WIyWlLk6GJQsqaUBKTNV-1">
          <mxGeometry x="790" y="105" width="170" height="190" as="geometry">
            <mxRectangle x="340" y="380" width="170" height="26" as="alternateBounds" />
          </mxGeometry>
        </mxCell>
        <mxCell id="7Z3Eb2daHMO5Wzh2JKDy-7" value="" style="line;html=1;strokeWidth=1;align=left;verticalAlign=middle;spacingTop=-1;spacingLeft=3;spacingRight=3;rotatable=0;labelPosition=right;points=[];portConstraint=eastwest;" vertex="1" parent="7Z3Eb2daHMO5Wzh2JKDy-6">
          <mxGeometry y="26" width="170" height="10" as="geometry" />
        </mxCell>
        <mxCell id="1PLB17I36tUeewQhvuuq-19" style="edgeStyle=orthogonalEdgeStyle;rounded=0;orthogonalLoop=1;jettySize=auto;html=1;strokeColor=default;strokeWidth=1;align=center;verticalAlign=middle;fontFamily=Helvetica;fontSize=11;fontColor=default;labelBackgroundColor=default;startArrow=none;startFill=0;startSize=20;endArrow=classic;" edge="1" parent="7Z3Eb2daHMO5Wzh2JKDy-6" source="7Z3Eb2daHMO5Wzh2JKDy-8">
          <mxGeometry relative="1" as="geometry">
            <mxPoint x="-150.00000000000023" y="75" as="targetPoint" />
          </mxGeometry>
        </mxCell>
        <mxCell id="7Z3Eb2daHMO5Wzh2JKDy-8" value="&amp;nbsp;+ add(name, amount, goal)&lt;div&gt;&amp;nbsp;+ contribute(amount)&lt;/div&gt;&lt;div&gt;&amp;nbsp;+ remove()&lt;br&gt;&lt;div&gt;&amp;nbsp;+ saveAndExit()&lt;br&gt;&lt;/div&gt;&lt;/div&gt;" style="text;html=1;align=left;verticalAlign=middle;resizable=0;points=[];autosize=1;strokeColor=none;fillColor=none;" vertex="1" parent="7Z3Eb2daHMO5Wzh2JKDy-6">
          <mxGeometry y="36" width="170" height="70" as="geometry" />
        </mxCell>
        <mxCell id="7Z3Eb2daHMO5Wzh2JKDy-11" value="AccountsGUI" style="swimlane;fontStyle=0;align=center;verticalAlign=top;childLayout=stackLayout;horizontal=1;startSize=26;horizontalStack=0;resizeParent=1;resizeLast=0;collapsible=1;marginBottom=0;rounded=0;shadow=0;strokeWidth=1;" vertex="1" parent="WIyWlLk6GJQsqaUBKTNV-1">
          <mxGeometry x="160" y="-130" width="160" height="180" as="geometry">
            <mxRectangle x="130" y="380" width="160" height="26" as="alternateBounds" />
          </mxGeometry>
        </mxCell>
        <mxCell id="7Z3Eb2daHMO5Wzh2JKDy-12" value="" style="line;html=1;strokeWidth=1;align=left;verticalAlign=middle;spacingTop=-1;spacingLeft=3;spacingRight=3;rotatable=0;labelPosition=right;points=[];portConstraint=eastwest;" vertex="1" parent="7Z3Eb2daHMO5Wzh2JKDy-11">
          <mxGeometry y="26" width="160" height="8" as="geometry" />
        </mxCell>
        <mxCell id="7Z3Eb2daHMO5Wzh2JKDy-13" value="+ editCheckingAccount()&#xa;+ editSavingsAccount()&#xa;+ editCreditCard()&#xa;+ payCreditCardBill()&#xa;+ saveAndExit()" style="text;align=left;verticalAlign=top;spacingLeft=4;spacingRight=4;overflow=hidden;rotatable=0;points=[[0,0.5],[1,0.5]];portConstraint=eastwest;fontStyle=0" vertex="1" parent="7Z3Eb2daHMO5Wzh2JKDy-11">
          <mxGeometry y="34" width="160" height="136" as="geometry" />
        </mxCell>
        <mxCell id="1PLB17I36tUeewQhvuuq-7" style="edgeStyle=orthogonalEdgeStyle;rounded=0;orthogonalLoop=1;jettySize=auto;html=1;entryX=0;entryY=0.605;entryDx=0;entryDy=0;entryPerimeter=0;dashed=1;" edge="1" parent="WIyWlLk6GJQsqaUBKTNV-1" source="7Z3Eb2daHMO5Wzh2JKDy-15" target="7Z3Eb2daHMO5Wzh2JKDy-19">
          <mxGeometry relative="1" as="geometry">
            <mxPoint x="400" y="740" as="targetPoint" />
          </mxGeometry>
        </mxCell>
        <mxCell id="1PLB17I36tUeewQhvuuq-18" style="edgeStyle=orthogonalEdgeStyle;rounded=0;orthogonalLoop=1;jettySize=auto;html=1;exitX=1;exitY=0.75;exitDx=0;exitDy=0;entryX=0;entryY=0.75;entryDx=0;entryDy=0;strokeColor=default;strokeWidth=1;align=center;verticalAlign=middle;fontFamily=Helvetica;fontSize=11;fontColor=default;labelBackgroundColor=default;startArrow=none;startFill=0;startSize=20;endArrow=classic;" edge="1" parent="WIyWlLk6GJQsqaUBKTNV-1" source="7Z3Eb2daHMO5Wzh2JKDy-15" target="1PLB17I36tUeewQhvuuq-0">
          <mxGeometry relative="1" as="geometry" />
        </mxCell>
        <mxCell id="7Z3Eb2daHMO5Wzh2JKDy-15" value="NetIncomeTrackerGUI" style="swimlane;fontStyle=0;align=center;verticalAlign=top;childLayout=stackLayout;horizontal=1;startSize=26;horizontalStack=0;resizeParent=1;resizeLast=0;collapsible=1;marginBottom=0;rounded=0;shadow=0;strokeWidth=1;" vertex="1" parent="WIyWlLk6GJQsqaUBKTNV-1">
          <mxGeometry x="155" y="140" width="170" height="190" as="geometry">
            <mxRectangle x="340" y="380" width="170" height="26" as="alternateBounds" />
          </mxGeometry>
        </mxCell>
        <mxCell id="7Z3Eb2daHMO5Wzh2JKDy-16" value="" style="line;html=1;strokeWidth=1;align=left;verticalAlign=middle;spacingTop=-1;spacingLeft=3;spacingRight=3;rotatable=0;labelPosition=right;points=[];portConstraint=eastwest;" vertex="1" parent="7Z3Eb2daHMO5Wzh2JKDy-15">
          <mxGeometry y="26" width="170" height="10" as="geometry" />
        </mxCell>
        <mxCell id="7Z3Eb2daHMO5Wzh2JKDy-17" value="&lt;div&gt;&amp;nbsp;+ editIncome()&amp;nbsp;&lt;/div&gt;&lt;div&gt;&amp;nbsp;+ editExpenses()&lt;/div&gt;&lt;div&gt;&amp;nbsp;+ editInvestments()&lt;/div&gt;&lt;div&gt;&amp;nbsp;+ saveAndExit()&lt;br&gt;&lt;/div&gt;" style="text;html=1;align=left;verticalAlign=middle;resizable=0;points=[];autosize=1;strokeColor=none;fillColor=none;" vertex="1" parent="7Z3Eb2daHMO5Wzh2JKDy-15">
          <mxGeometry y="36" width="170" height="70" as="geometry" />
        </mxCell>
        <mxCell id="7Z3Eb2daHMO5Wzh2JKDy-18" value="FinancialData" style="swimlane;fontStyle=0;align=center;verticalAlign=top;childLayout=stackLayout;horizontal=1;startSize=26;horizontalStack=0;resizeParent=1;resizeLast=0;collapsible=1;marginBottom=0;rounded=0;shadow=0;strokeWidth=1;" vertex="1" parent="WIyWlLk6GJQsqaUBKTNV-1">
          <mxGeometry x="450" y="371" width="230" height="284" as="geometry">
            <mxRectangle x="130" y="380" width="160" height="26" as="alternateBounds" />
          </mxGeometry>
        </mxCell>
        <mxCell id="7Z3Eb2daHMO5Wzh2JKDy-19" value="&amp;nbsp;-&amp;nbsp; balance: Double&lt;div&gt;&amp;nbsp;- incomeTotal: Double&lt;/div&gt;&lt;div&gt;&amp;nbsp;- expenseTotal: Double&lt;/div&gt;&lt;div&gt;&amp;nbsp;- investmentTotal: Double&lt;/div&gt;&lt;div&gt;&amp;nbsp;- checkingTotal: Double&lt;/div&gt;&lt;div&gt;&amp;nbsp;- savingTotal: Double&lt;/div&gt;&lt;div&gt;&amp;nbsp;- creditTotal: Double&lt;/div&gt;&lt;div&gt;&amp;nbsp;- incomeSources: ArrayList&amp;lt;String&amp;gt;&lt;/div&gt;&lt;div&gt;&amp;nbsp;- expenseSources: ArrayList&amp;lt;String&amp;gt;&lt;/div&gt;&lt;div&gt;&amp;nbsp;- investmentSources: ArrayList&amp;lt;String&amp;gt;&lt;br&gt;&amp;nbsp;- checkingSources: ArrayList&amp;lt;String&amp;gt;&lt;br&gt;&amp;nbsp;- savingsSources: ArrayList&amp;lt;String&amp;gt;&lt;br&gt;&amp;nbsp;- creditSources: ArrayList&amp;lt;String&amp;gt;&lt;/div&gt;&lt;div&gt;&amp;nbsp;- budgetList: ArrayList&amp;lt;String&amp;gt;&lt;/div&gt;" style="text;html=1;align=left;verticalAlign=middle;resizable=0;points=[];autosize=1;strokeColor=none;fillColor=none;" vertex="1" parent="7Z3Eb2daHMO5Wzh2JKDy-18">
          <mxGeometry y="26" width="230" height="220" as="geometry" />
        </mxCell>
        <mxCell id="7Z3Eb2daHMO5Wzh2JKDy-20" value="" style="line;html=1;strokeWidth=1;align=left;verticalAlign=middle;spacingTop=-1;spacingLeft=3;spacingRight=3;rotatable=0;labelPosition=right;points=[];portConstraint=eastwest;" vertex="1" parent="7Z3Eb2daHMO5Wzh2JKDy-18">
          <mxGeometry y="246" width="230" height="8" as="geometry" />
        </mxCell>
        <mxCell id="7Z3Eb2daHMO5Wzh2JKDy-21" value="&amp;nbsp;+ payCreditBill()" style="text;html=1;align=left;verticalAlign=middle;whiteSpace=wrap;rounded=0;" vertex="1" parent="7Z3Eb2daHMO5Wzh2JKDy-18">
          <mxGeometry y="254" width="230" height="30" as="geometry" />
        </mxCell>
        <mxCell id="1PLB17I36tUeewQhvuuq-0" value="editGUI" style="swimlane;fontStyle=0;align=center;verticalAlign=top;childLayout=stackLayout;horizontal=1;startSize=26;horizontalStack=0;resizeParent=1;resizeLast=0;collapsible=1;marginBottom=0;rounded=0;shadow=0;strokeWidth=1;" vertex="1" parent="WIyWlLk6GJQsqaUBKTNV-1">
          <mxGeometry x="480" y="20" width="160" height="260" as="geometry">
            <mxRectangle x="230" y="140" width="160" height="26" as="alternateBounds" />
          </mxGeometry>
        </mxCell>
        <mxCell id="1PLB17I36tUeewQhvuuq-1" value="" style="line;html=1;strokeWidth=1;align=left;verticalAlign=middle;spacingTop=-1;spacingLeft=3;spacingRight=3;rotatable=0;labelPosition=right;points=[];portConstraint=eastwest;" vertex="1" parent="1PLB17I36tUeewQhvuuq-0">
          <mxGeometry y="26" width="160" height="8" as="geometry" />
        </mxCell>
        <mxCell id="1PLB17I36tUeewQhvuuq-2" value="&amp;nbsp;+ editGUI(Type)&lt;div&gt;&amp;nbsp;+ getSources()&lt;div&gt;&amp;nbsp;+ addItem()&lt;br&gt;&lt;div&gt;&amp;nbsp;+ removeItem()&lt;div&gt;&amp;nbsp;+ saveAndExit()&lt;/div&gt;&lt;/div&gt;&lt;/div&gt;&lt;/div&gt;" style="text;html=1;align=left;verticalAlign=middle;resizable=0;points=[];autosize=1;strokeColor=none;fillColor=none;" vertex="1" parent="1PLB17I36tUeewQhvuuq-0">
          <mxGeometry y="34" width="160" height="90" as="geometry" />
        </mxCell>
        <mxCell id="1PLB17I36tUeewQhvuuq-3" value="MessageGUI" style="swimlane;fontStyle=0;align=center;verticalAlign=top;childLayout=stackLayout;horizontal=1;startSize=26;horizontalStack=0;resizeParent=1;resizeLast=0;collapsible=1;marginBottom=0;rounded=0;shadow=0;strokeWidth=1;" vertex="1" parent="WIyWlLk6GJQsqaUBKTNV-1">
          <mxGeometry x="150" y="450" width="170" height="190" as="geometry">
            <mxRectangle x="340" y="380" width="170" height="26" as="alternateBounds" />
          </mxGeometry>
        </mxCell>
        <mxCell id="1PLB17I36tUeewQhvuuq-4" value="" style="line;html=1;strokeWidth=1;align=left;verticalAlign=middle;spacingTop=-1;spacingLeft=3;spacingRight=3;rotatable=0;labelPosition=right;points=[];portConstraint=eastwest;" vertex="1" parent="1PLB17I36tUeewQhvuuq-3">
          <mxGeometry y="26" width="170" height="10" as="geometry" />
        </mxCell>
        <mxCell id="1PLB17I36tUeewQhvuuq-5" value="&amp;nbsp;+ MessageGUI(message)" style="text;html=1;align=left;verticalAlign=middle;resizable=0;points=[];autosize=1;strokeColor=none;fillColor=none;" vertex="1" parent="1PLB17I36tUeewQhvuuq-3">
          <mxGeometry y="36" width="170" height="30" as="geometry" />
        </mxCell>
        <mxCell id="1PLB17I36tUeewQhvuuq-6" style="edgeStyle=orthogonalEdgeStyle;rounded=0;orthogonalLoop=1;jettySize=auto;html=1;exitX=1;exitY=0.5;exitDx=0;exitDy=0;entryX=-0.003;entryY=0.545;entryDx=0;entryDy=0;entryPerimeter=0;dashed=1;" edge="1" parent="WIyWlLk6GJQsqaUBKTNV-1" source="7Z3Eb2daHMO5Wzh2JKDy-13" target="7Z3Eb2daHMO5Wzh2JKDy-19">
          <mxGeometry relative="1" as="geometry" />
        </mxCell>
        <mxCell id="1PLB17I36tUeewQhvuuq-9" style="edgeStyle=orthogonalEdgeStyle;rounded=0;orthogonalLoop=1;jettySize=auto;html=1;entryX=1.002;entryY=0.723;entryDx=0;entryDy=0;entryPerimeter=0;dashed=1;" edge="1" parent="WIyWlLk6GJQsqaUBKTNV-1" source="7Z3Eb2daHMO5Wzh2JKDy-6" target="7Z3Eb2daHMO5Wzh2JKDy-19">
          <mxGeometry relative="1" as="geometry" />
        </mxCell>
        <mxCell id="1PLB17I36tUeewQhvuuq-10" style="edgeStyle=orthogonalEdgeStyle;rounded=0;orthogonalLoop=1;jettySize=auto;html=1;entryX=0.475;entryY=0.005;entryDx=0;entryDy=0;entryPerimeter=0;dashed=1;" edge="1" parent="WIyWlLk6GJQsqaUBKTNV-1" source="1PLB17I36tUeewQhvuuq-0" target="7Z3Eb2daHMO5Wzh2JKDy-18">
          <mxGeometry relative="1" as="geometry" />
        </mxCell>
        <mxCell id="1PLB17I36tUeewQhvuuq-12" style="edgeStyle=orthogonalEdgeStyle;rounded=0;orthogonalLoop=1;jettySize=auto;html=1;entryX=1;entryY=0.5;entryDx=0;entryDy=0;exitX=-0.006;exitY=0.914;exitDx=0;exitDy=0;exitPerimeter=0;startArrow=none;startFill=0;strokeWidth=1;startSize=20;strokeColor=default;align=center;verticalAlign=middle;fontFamily=Helvetica;fontSize=11;fontColor=default;labelBackgroundColor=default;endArrow=classic;" edge="1" parent="WIyWlLk6GJQsqaUBKTNV-1" source="7Z3Eb2daHMO5Wzh2JKDy-19" target="1PLB17I36tUeewQhvuuq-3">
          <mxGeometry relative="1" as="geometry" />
        </mxCell>
        <mxCell id="1PLB17I36tUeewQhvuuq-14" style="edgeStyle=orthogonalEdgeStyle;rounded=0;orthogonalLoop=1;jettySize=auto;html=1;entryX=1.018;entryY=0.096;entryDx=0;entryDy=0;entryPerimeter=0;strokeColor=default;strokeWidth=1;align=center;verticalAlign=middle;fontFamily=Helvetica;fontSize=11;fontColor=default;labelBackgroundColor=default;startArrow=none;startFill=0;startSize=20;endArrow=classic;" edge="1" parent="WIyWlLk6GJQsqaUBKTNV-1" source="7Z3Eb2daHMO5Wzh2JKDy-3" target="7Z3Eb2daHMO5Wzh2JKDy-13">
          <mxGeometry relative="1" as="geometry" />
        </mxCell>
        <mxCell id="1PLB17I36tUeewQhvuuq-15" style="edgeStyle=orthogonalEdgeStyle;rounded=0;orthogonalLoop=1;jettySize=auto;html=1;exitX=0;exitY=0.75;exitDx=0;exitDy=0;entryX=0.997;entryY=0.107;entryDx=0;entryDy=0;entryPerimeter=0;strokeColor=default;strokeWidth=1;align=center;verticalAlign=middle;fontFamily=Helvetica;fontSize=11;fontColor=default;labelBackgroundColor=default;startArrow=none;startFill=0;startSize=20;endArrow=classic;" edge="1" parent="WIyWlLk6GJQsqaUBKTNV-1" source="7Z3Eb2daHMO5Wzh2JKDy-3" target="7Z3Eb2daHMO5Wzh2JKDy-17">
          <mxGeometry relative="1" as="geometry" />
        </mxCell>
        <mxCell id="1PLB17I36tUeewQhvuuq-17" style="edgeStyle=orthogonalEdgeStyle;rounded=0;orthogonalLoop=1;jettySize=auto;html=1;entryX=0.006;entryY=0.464;entryDx=0;entryDy=0;entryPerimeter=0;strokeColor=default;strokeWidth=1;align=center;verticalAlign=middle;fontFamily=Helvetica;fontSize=11;fontColor=default;labelBackgroundColor=default;startArrow=none;startFill=0;startSize=20;endArrow=classic;" edge="1" parent="WIyWlLk6GJQsqaUBKTNV-1">
          <mxGeometry relative="1" as="geometry">
            <mxPoint x="319.9999999999998" y="-49" as="sourcePoint" />
            <mxPoint x="480.9599999999998" y="74.76000000000022" as="targetPoint" />
            <Array as="points">
              <mxPoint x="340" y="-49" />
              <mxPoint x="340" y="-48" />
              <mxPoint x="430" y="-48" />
              <mxPoint x="430" y="75" />
            </Array>
          </mxGeometry>
        </mxCell>
      </root>
    </mxGraphModel>
  </diagram>
</mxfile>
